<?xml version="1.0" encoding="UTF-8" standalone="no"?>
<!DOCTYPE svg PUBLIC "-//W3C//DTD SVG 1.1//EN"
 "http://www.w3.org/Graphics/SVG/1.1/DTD/svg11.dtd">
<!-- Generated by graphviz version 2.47.3 (20210619.1520)
 -->
<!-- Title: dependencies Pages: 1 -->
<svg width="766pt" height="174pt"
 viewBox="0.00 0.00 766.00 173.80" xmlns="http://www.w3.org/2000/svg" xmlns:xlink="http://www.w3.org/1999/xlink">
<g id="graph0" class="graph" transform="scale(1 1) rotate(0) translate(4 169.8)">
<title>dependencies</title>
<polygon fill="white" stroke="transparent" points="-4,4 -4,-169.8 762,-169.8 762,4 -4,4"/>
<text text-anchor="middle" x="379" y="-8.2" font-family="sans-serif" font-size="14.00">dependencies</text>
<g id="clust1" class="cluster">
<title>cluster_AppModule</title>
<polygon fill="none" stroke="black" stroke-dasharray="1,5" points="8,-32.8 8,-157.8 750,-157.8 750,-32.8 8,-32.8"/>
</g>
<g id="clust3" class="cluster">
<title>cluster_AppModule_imports</title>
<polygon fill="none" stroke="black" points="315,-40.8 315,-92.8 742,-92.8 742,-40.8 315,-40.8"/>
</g>
<g id="clust6" class="cluster">
<title>cluster_AppModule_providers</title>
<polygon fill="none" stroke="black" points="16,-40.8 16,-92.8 307,-92.8 307,-40.8 16,-40.8"/>
</g>
<!-- AuthModule -->
<g id="node1" class="node">
<title>AuthModule</title>
<polygon fill="#8dd3c7" stroke="black" points="733.55,-84.8 730.55,-88.8 709.55,-88.8 706.55,-84.8 646.45,-84.8 646.45,-48.8 733.55,-48.8 733.55,-84.8"/>
<text text-anchor="middle" x="690" y="-62.6" font-family="Times,serif" font-size="14.00">AuthModule</text>
</g>
<!-- AppModule -->
<g id="node5" class="node">
<title>AppModule</title>
<polygon fill="#8dd3c7" stroke="black" points="463.66,-149.8 460.66,-153.8 439.66,-153.8 436.66,-149.8 380.34,-149.8 380.34,-113.8 463.66,-113.8 463.66,-149.8"/>
<text text-anchor="middle" x="422" y="-127.6" font-family="Times,serif" font-size="14.00">AppModule</text>
</g>
<!-- AuthModule&#45;&gt;AppModule -->
<g id="edge1" class="edge">
<title>AuthModule&#45;&gt;AppModule</title>
<path fill="none" stroke="black" d="M690,-85.08C690,-106.12 690,-137.8 690,-137.8 690,-137.8 473.88,-137.8 473.88,-137.8"/>
<polygon fill="black" stroke="black" points="473.88,-134.3 463.88,-137.8 473.87,-141.3 473.88,-134.3"/>
</g>
<!-- LinksModule -->
<g id="node2" class="node">
<title>LinksModule</title>
<polygon fill="#8dd3c7" stroke="black" points="628.94,-84.8 625.94,-88.8 604.94,-88.8 601.94,-84.8 537.06,-84.8 537.06,-48.8 628.94,-48.8 628.94,-84.8"/>
<text text-anchor="middle" x="583" y="-62.6" font-family="Times,serif" font-size="14.00">LinksModule</text>
</g>
<!-- LinksModule&#45;&gt;AppModule -->
<g id="edge2" class="edge">
<title>LinksModule&#45;&gt;AppModule</title>
<path fill="none" stroke="black" d="M583,-84.82C583,-102.17 583,-125.8 583,-125.8 583,-125.8 473.88,-125.8 473.88,-125.8"/>
<polygon fill="black" stroke="black" points="473.88,-122.3 463.88,-125.8 473.88,-129.3 473.88,-122.3"/>
</g>
<!-- MailModule -->
<g id="node3" class="node">
<title>MailModule</title>
<polygon fill="#8dd3c7" stroke="black" points="518.99,-84.8 515.99,-88.8 494.99,-88.8 491.99,-84.8 433.01,-84.8 433.01,-48.8 518.99,-48.8 518.99,-84.8"/>
<text text-anchor="middle" x="476" y="-62.6" font-family="Times,serif" font-size="14.00">MailModule</text>
</g>
<!-- MailModule&#45;&gt;AppModule -->
<g id="edge3" class="edge">
<title>MailModule&#45;&gt;AppModule</title>
<path fill="none" stroke="black" d="M448.42,-84.91C448.42,-84.91 448.42,-103.79 448.42,-103.79"/>
<polygon fill="black" stroke="black" points="444.92,-103.79 448.42,-113.79 451.92,-103.79 444.92,-103.79"/>
</g>
<!-- UsersModule -->
<g id="node4" class="node">
<title>UsersModule</title>
<polygon fill="#8dd3c7" stroke="black" points="414.92,-84.8 411.92,-88.8 390.92,-88.8 387.92,-84.8 323.08,-84.8 323.08,-48.8 414.92,-48.8 414.92,-84.8"/>
<text text-anchor="middle" x="369" y="-62.6" font-family="Times,serif" font-size="14.00">UsersModule</text>
</g>
<!-- UsersModule&#45;&gt;AppModule -->
<g id="edge4" class="edge">
<title>UsersModule&#45;&gt;AppModule</title>
<path fill="none" stroke="black" d="M397.44,-84.91C397.44,-84.91 397.44,-103.79 397.44,-103.79"/>
<polygon fill="black" stroke="black" points="393.94,-103.79 397.44,-113.79 400.94,-103.79 393.94,-103.79"/>
</g>
<!-- AppService -->
<g id="node6" class="node">
<title>AppService</title>
<ellipse fill="#fdb462" stroke="black" cx="242" cy="-66.8" rx="56.74" ry="18"/>
<text text-anchor="middle" x="242" y="-62.6" font-family="Times,serif" font-size="14.00">AppService</text>
</g>
<!-- AppService&#45;&gt;AppModule -->
<g id="edge5" class="edge">
<title>AppService&#45;&gt;AppModule</title>
<path fill="none" stroke="black" d="M242,-84.82C242,-102.17 242,-125.8 242,-125.8 242,-125.8 370.25,-125.8 370.25,-125.8"/>
<polygon fill="black" stroke="black" points="370.25,-129.3 380.25,-125.8 370.25,-122.3 370.25,-129.3"/>
</g>
<!-- LinkRepository -->
<g id="node7" class="node">
<title>LinkRepository</title>
<ellipse fill="#fdb462" stroke="black" cx="96" cy="-66.8" rx="71.81" ry="18"/>
<text text-anchor="middle" x="96" y="-62.6" font-family="Times,serif" font-size="14.00">LinkRepository</text>
</g>
<!-- LinkRepository&#45;&gt;AppModule -->
<g id="edge6" class="edge">
<title>LinkRepository&#45;&gt;AppModule</title>
<path fill="none" stroke="black" d="M96,-85.08C96,-106.12 96,-137.8 96,-137.8 96,-137.8 370.05,-137.8 370.05,-137.8"/>
<polygon fill="black" stroke="black" points="370.05,-141.3 380.05,-137.8 370.05,-134.3 370.05,-141.3"/>
</g>
</g>
</svg>
