<?xml version="1.0" encoding="UTF-8" standalone="no"?>
<!DOCTYPE svg PUBLIC "-//W3C//DTD SVG 1.1//EN"
 "http://www.w3.org/Graphics/SVG/1.1/DTD/svg11.dtd">
<!-- Generated by graphviz version 2.47.3 (20210619.1520)
 -->
<!-- Title: dependencies Pages: 1 -->
<svg width="504pt" height="174pt"
 viewBox="0.00 0.00 504.00 173.80" xmlns="http://www.w3.org/2000/svg" xmlns:xlink="http://www.w3.org/1999/xlink">
<g id="graph0" class="graph" transform="scale(1 1) rotate(0) translate(4 169.8)">
<title>dependencies</title>
<polygon fill="white" stroke="transparent" points="-4,4 -4,-169.8 500,-169.8 500,4 -4,4"/>
<text text-anchor="middle" x="248" y="-8.2" font-family="sans-serif" font-size="14.00">dependencies</text>
<g id="clust1" class="cluster">
<title>cluster_LinksModule</title>
<polygon fill="none" stroke="black" stroke-dasharray="1,5" points="8,-32.8 8,-157.8 488,-157.8 488,-32.8 8,-32.8"/>
</g>
<g id="clust6" class="cluster">
<title>cluster_LinksModule_providers</title>
<polygon fill="none" stroke="black" points="16,-40.8 16,-92.8 480,-92.8 480,-40.8 16,-40.8"/>
</g>
<!-- LinkRepository -->
<g id="node1" class="node">
<title>LinkRepository</title>
<ellipse fill="#fdb462" stroke="black" cx="400" cy="-66.8" rx="71.81" ry="18"/>
<text text-anchor="middle" x="400" y="-62.6" font-family="Times,serif" font-size="14.00">LinkRepository</text>
</g>
<!-- LinksModule -->
<g id="node4" class="node">
<title>LinksModule</title>
<polygon fill="#8dd3c7" stroke="black" points="293.94,-149.8 290.94,-153.8 269.94,-153.8 266.94,-149.8 202.06,-149.8 202.06,-113.8 293.94,-113.8 293.94,-149.8"/>
<text text-anchor="middle" x="248" y="-127.6" font-family="Times,serif" font-size="14.00">LinksModule</text>
</g>
<!-- LinkRepository&#45;&gt;LinksModule -->
<g id="edge1" class="edge">
<title>LinkRepository&#45;&gt;LinksModule</title>
<path fill="none" stroke="black" d="M400,-84.91C400,-104.14 400,-131.8 400,-131.8 400,-131.8 304.02,-131.8 304.02,-131.8"/>
<polygon fill="black" stroke="black" points="304.02,-128.3 294.02,-131.8 304.02,-135.3 304.02,-128.3"/>
</g>
<!-- LinksService -->
<g id="node2" class="node">
<title>LinksService</title>
<ellipse fill="#fdb462" stroke="black" cx="248" cy="-66.8" rx="61.98" ry="18"/>
<text text-anchor="middle" x="248" y="-62.6" font-family="Times,serif" font-size="14.00">LinksService</text>
</g>
<!-- LinksService&#45;&gt;LinksModule -->
<g id="edge2" class="edge">
<title>LinksService&#45;&gt;LinksModule</title>
<path fill="none" stroke="black" d="M248,-84.91C248,-84.91 248,-103.79 248,-103.79"/>
<polygon fill="black" stroke="black" points="244.5,-103.79 248,-113.79 251.5,-103.79 244.5,-103.79"/>
</g>
<!-- UserRepository -->
<g id="node3" class="node">
<title>UserRepository</title>
<ellipse fill="#fdb462" stroke="black" cx="96" cy="-66.8" rx="71.79" ry="18"/>
<text text-anchor="middle" x="96" y="-62.6" font-family="Times,serif" font-size="14.00">UserRepository</text>
</g>
<!-- UserRepository&#45;&gt;LinksModule -->
<g id="edge3" class="edge">
<title>UserRepository&#45;&gt;LinksModule</title>
<path fill="none" stroke="black" d="M96,-84.91C96,-104.14 96,-131.8 96,-131.8 96,-131.8 191.98,-131.8 191.98,-131.8"/>
<polygon fill="black" stroke="black" points="191.98,-135.3 201.98,-131.8 191.98,-128.3 191.98,-135.3"/>
</g>
</g>
</svg>
