<?xml version="1.0" encoding="UTF-8" standalone="no"?>
<!DOCTYPE svg PUBLIC "-//W3C//DTD SVG 1.1//EN"
 "http://www.w3.org/Graphics/SVG/1.1/DTD/svg11.dtd">
<!-- Generated by graphviz version 2.47.3 (20210619.1520)
 -->
<!-- Title: dependencies Pages: 1 -->
<svg width="1137pt" height="326pt"
 viewBox="0.00 0.00 1137.00 325.80" xmlns="http://www.w3.org/2000/svg" xmlns:xlink="http://www.w3.org/1999/xlink">
<g id="graph0" class="graph" transform="scale(1 1) rotate(0) translate(4 321.8)">
<title>dependencies</title>
<polygon fill="white" stroke="transparent" points="-4,4 -4,-321.8 1133,-321.8 1133,4 -4,4"/>
<text text-anchor="middle" x="564.5" y="-8.2" font-family="sans-serif" font-size="14.00">dependencies</text>
<g id="clust1" class="cluster">
<title>cluster_AppModule</title>
<polygon fill="none" stroke="black" stroke-dasharray="1,5" points="276,-32.8 276,-309.8 641,-309.8 641,-32.8 276,-32.8"/>
</g>
<g id="clust3" class="cluster">
<title>cluster_AppModule_imports</title>
<polygon fill="none" stroke="black" points="316,-116.8 316,-244.8 633,-244.8 633,-116.8 316,-116.8"/>
</g>
<g id="clust6" class="cluster">
<title>cluster_AppModule_providers</title>
<polygon fill="none" stroke="black" points="284,-40.8 284,-92.8 575,-92.8 575,-40.8 284,-40.8"/>
</g>
<g id="clust7" class="cluster">
<title>cluster_AuthModule</title>
<polygon fill="none" stroke="black" stroke-dasharray="1,5" points="649,-32.8 649,-100.8 795,-100.8 795,-32.8 649,-32.8"/>
</g>
<g id="clust12" class="cluster">
<title>cluster_AuthModule_providers</title>
<polygon fill="none" stroke="black" points="657,-40.8 657,-92.8 787,-92.8 787,-40.8 657,-40.8"/>
</g>
<g id="clust13" class="cluster">
<title>cluster_LinksModule</title>
<polygon fill="none" stroke="black" stroke-dasharray="1,5" points="803,-32.8 803,-100.8 1121,-100.8 1121,-32.8 803,-32.8"/>
</g>
<g id="clust18" class="cluster">
<title>cluster_LinksModule_providers</title>
<polygon fill="none" stroke="black" points="811,-40.8 811,-92.8 1113,-92.8 1113,-40.8 811,-40.8"/>
</g>
<g id="clust19" class="cluster">
<title>cluster_MailModule</title>
<polygon fill="none" stroke="black" stroke-dasharray="1,5" points="8,-184.8 8,-252.8 268,-252.8 268,-184.8 8,-184.8"/>
</g>
<g id="clust22" class="cluster">
<title>cluster_MailModule_exports</title>
<polygon fill="none" stroke="black" points="156,-192.8 156,-244.8 260,-244.8 260,-192.8 156,-192.8"/>
</g>
<g id="clust24" class="cluster">
<title>cluster_MailModule_providers</title>
<polygon fill="none" stroke="black" points="16,-192.8 16,-244.8 148,-244.8 148,-192.8 16,-192.8"/>
</g>
<g id="clust25" class="cluster">
<title>cluster_UsersModule</title>
<polygon fill="none" stroke="black" stroke-dasharray="1,5" points="671,-108.8 671,-176.8 827,-176.8 827,-108.8 671,-108.8"/>
</g>
<g id="clust30" class="cluster">
<title>cluster_UsersModule_providers</title>
<polygon fill="none" stroke="black" points="679,-116.8 679,-168.8 819,-168.8 819,-116.8 679,-116.8"/>
</g>
<!-- AuthModule -->
<g id="node1" class="node">
<title>AuthModule</title>
<polygon fill="#8dd3c7" stroke="black" points="515.55,-160.8 512.55,-164.8 491.55,-164.8 488.55,-160.8 428.45,-160.8 428.45,-124.8 515.55,-124.8 515.55,-160.8"/>
<text text-anchor="middle" x="472" y="-138.6" font-family="Times,serif" font-size="14.00">AuthModule</text>
</g>
<!-- AppModule -->
<g id="node5" class="node">
<title>AppModule</title>
<polygon fill="#8dd3c7" stroke="black" points="426.66,-301.8 423.66,-305.8 402.66,-305.8 399.66,-301.8 343.34,-301.8 343.34,-265.8 426.66,-265.8 426.66,-301.8"/>
<text text-anchor="middle" x="385" y="-279.6" font-family="Times,serif" font-size="14.00">AppModule</text>
</g>
<!-- AuthModule&#45;&gt;AppModule -->
<g id="edge1" class="edge">
<title>AuthModule&#45;&gt;AppModule</title>
<path fill="none" stroke="black" d="M428.42,-142.8C422.28,-142.8 418,-142.8 418,-142.8 418,-142.8 418,-255.66 418,-255.66"/>
<polygon fill="black" stroke="black" points="414.51,-255.66 418,-265.66 421.51,-255.66 414.51,-255.66"/>
</g>
<!-- LinksModule -->
<g id="node2" class="node">
<title>LinksModule</title>
<polygon fill="#8dd3c7" stroke="black" points="624.94,-160.8 621.94,-164.8 600.94,-164.8 597.94,-160.8 533.06,-160.8 533.06,-124.8 624.94,-124.8 624.94,-160.8"/>
<text text-anchor="middle" x="579" y="-138.6" font-family="Times,serif" font-size="14.00">LinksModule</text>
</g>
<!-- LinksModule&#45;&gt;AppModule -->
<g id="edge2" class="edge">
<title>LinksModule&#45;&gt;AppModule</title>
<path fill="none" stroke="black" d="M620.21,-160.94C620.21,-199.03 620.21,-283.8 620.21,-283.8 620.21,-283.8 436.78,-283.8 436.78,-283.8"/>
<polygon fill="black" stroke="black" points="436.78,-280.3 426.78,-283.8 436.78,-287.3 436.78,-280.3"/>
</g>
<!-- MailModule -->
<g id="node3" class="node">
<title>MailModule</title>
<polygon fill="#8dd3c7" stroke="black" points="409.99,-160.8 406.99,-164.8 385.99,-164.8 382.99,-160.8 324.01,-160.8 324.01,-124.8 409.99,-124.8 409.99,-160.8"/>
<text text-anchor="middle" x="367" y="-138.6" font-family="Times,serif" font-size="14.00">MailModule</text>
</g>
<!-- UsersModule -->
<g id="node4" class="node">
<title>UsersModule</title>
<polygon fill="#8dd3c7" stroke="black" points="615.92,-236.8 612.92,-240.8 591.92,-240.8 588.92,-236.8 524.08,-236.8 524.08,-200.8 615.92,-200.8 615.92,-236.8"/>
<text text-anchor="middle" x="570" y="-214.6" font-family="Times,serif" font-size="14.00">UsersModule</text>
</g>
<!-- MailModule&#45;&gt;UsersModule -->
<g id="edge13" class="edge">
<title>MailModule&#45;&gt;UsersModule</title>
<path fill="none" stroke="black" d="M387.72,-161.11C387.72,-180.95 387.72,-209.8 387.72,-209.8 387.72,-209.8 514,-209.8 514,-209.8"/>
<polygon fill="black" stroke="black" points="514,-213.3 524,-209.8 514,-206.3 514,-213.3"/>
</g>
<!-- MailModule&#45;&gt;AppModule -->
<g id="edge3" class="edge">
<title>MailModule&#45;&gt;AppModule</title>
<path fill="none" stroke="black" d="M365.45,-160.94C365.45,-160.94 365.45,-255.73 365.45,-255.73"/>
<polygon fill="black" stroke="black" points="361.95,-255.72 365.45,-265.73 368.95,-255.73 361.95,-255.72"/>
</g>
<!-- MailService  -->
<g id="node11" class="node">
<title>MailService </title>
<polygon fill="#fb8072" stroke="black" points="251.92,-236.8 164.08,-236.8 164.08,-200.8 251.92,-200.8 251.92,-236.8"/>
<text text-anchor="middle" x="208" y="-214.6" font-family="Times,serif" font-size="14.00">MailService </text>
</g>
<!-- MailModule&#45;&gt;MailService  -->
<g id="edge11" class="edge">
<title>MailModule&#45;&gt;MailService </title>
<path fill="none" stroke="black" stroke-dasharray="5,2" d="M333.59,-160.83C333.59,-185.78 333.59,-227.8 333.59,-227.8 333.59,-227.8 261.92,-227.8 261.92,-227.8"/>
<polygon fill="black" stroke="black" points="261.92,-224.3 251.92,-227.8 261.92,-231.3 261.92,-224.3"/>
</g>
<!-- UsersModule&#45;&gt;AppModule -->
<g id="edge4" class="edge">
<title>UsersModule&#45;&gt;AppModule</title>
<path fill="none" stroke="black" d="M523.98,-218.8C480.1,-218.8 420.67,-218.8 420.67,-218.8 420.67,-218.8 420.67,-255.69 420.67,-255.69"/>
<polygon fill="black" stroke="black" points="417.18,-255.69 420.67,-265.69 424.18,-255.69 417.18,-255.69"/>
</g>
<!-- AppService -->
<g id="node6" class="node">
<title>AppService</title>
<ellipse fill="#fdb462" stroke="black" cx="349" cy="-66.8" rx="56.74" ry="18"/>
<text text-anchor="middle" x="349" y="-62.6" font-family="Times,serif" font-size="14.00">AppService</text>
</g>
<!-- AppService&#45;&gt;AppModule -->
<g id="edge5" class="edge">
<title>AppService&#45;&gt;AppModule</title>
<path fill="none" stroke="black" d="M402.44,-72.8C408.56,-72.8 412.67,-72.8 412.67,-72.8 412.67,-72.8 412.67,-255.44 412.67,-255.44"/>
<polygon fill="black" stroke="black" points="409.17,-255.44 412.67,-265.44 416.17,-255.44 409.17,-255.44"/>
</g>
<!-- LinkRepository -->
<g id="node7" class="node">
<title>LinkRepository</title>
<ellipse fill="#fdb462" stroke="black" cx="495" cy="-66.8" rx="71.81" ry="18"/>
<text text-anchor="middle" x="495" y="-62.6" font-family="Times,serif" font-size="14.00">LinkRepository</text>
</g>
<!-- LinkRepository&#45;&gt;LinksModule -->
<g id="edge8" class="edge">
<title>LinkRepository&#45;&gt;LinksModule</title>
<path fill="none" stroke="black" d="M549.97,-78.68C549.97,-78.68 549.97,-114.79 549.97,-114.79"/>
<polygon fill="black" stroke="black" points="546.47,-114.79 549.97,-124.79 553.47,-114.79 546.47,-114.79"/>
</g>
<!-- LinkRepository&#45;&gt;AppModule -->
<g id="edge6" class="edge">
<title>LinkRepository&#45;&gt;AppModule</title>
<path fill="none" stroke="black" d="M427.43,-60.8C420.16,-60.8 415.34,-60.8 415.34,-60.8 415.34,-60.8 415.34,-255.55 415.34,-255.55"/>
<polygon fill="black" stroke="black" points="411.83,-255.55 415.34,-265.55 418.83,-255.55 411.83,-255.55"/>
</g>
<!-- JwtStrategy -->
<g id="node8" class="node">
<title>JwtStrategy</title>
<ellipse fill="#fdb462" stroke="black" cx="722" cy="-66.8" rx="56.76" ry="18"/>
<text text-anchor="middle" x="722" y="-62.6" font-family="Times,serif" font-size="14.00">JwtStrategy</text>
</g>
<!-- JwtStrategy&#45;&gt;AuthModule -->
<g id="edge7" class="edge">
<title>JwtStrategy&#45;&gt;AuthModule</title>
<path fill="none" stroke="black" d="M676.2,-77.55C676.2,-85.44 676.2,-94.8 676.2,-94.8 676.2,-94.8 472,-94.8 472,-94.8 472,-94.8 472,-114.65 472,-114.65"/>
<polygon fill="black" stroke="black" points="468.5,-114.65 472,-124.65 475.5,-114.65 468.5,-114.65"/>
</g>
<!-- LinksService -->
<g id="node9" class="node">
<title>LinksService</title>
<ellipse fill="#fdb462" stroke="black" cx="881" cy="-66.8" rx="61.98" ry="18"/>
<text text-anchor="middle" x="881" y="-62.6" font-family="Times,serif" font-size="14.00">LinksService</text>
</g>
<!-- LinksService&#45;&gt;LinksModule -->
<g id="edge9" class="edge">
<title>LinksService&#45;&gt;LinksModule</title>
<path fill="none" stroke="black" d="M881,-84.91C881,-94.7 881,-104.8 881,-104.8 881,-104.8 586.01,-104.8 586.01,-104.8 586.01,-104.8 586.01,-114.69 586.01,-114.69"/>
<polygon fill="black" stroke="black" points="582.51,-114.69 586.01,-124.69 589.51,-114.69 582.51,-114.69"/>
</g>
<!-- UserRepository -->
<g id="node10" class="node">
<title>UserRepository</title>
<ellipse fill="#fdb462" stroke="black" cx="1033" cy="-66.8" rx="71.79" ry="18"/>
<text text-anchor="middle" x="1033" y="-62.6" font-family="Times,serif" font-size="14.00">UserRepository</text>
</g>
<!-- UserRepository&#45;&gt;LinksModule -->
<g id="edge10" class="edge">
<title>UserRepository&#45;&gt;LinksModule</title>
<path fill="none" stroke="black" d="M1009.12,-83.86C1009.12,-97.65 1009.12,-114.8 1009.12,-114.8 1009.12,-114.8 605.36,-114.8 605.36,-114.8 605.36,-114.8 605.36,-115.78 605.36,-115.78"/>
<polygon fill="black" stroke="black" points="601.86,-114.59 605.36,-124.59 608.86,-114.59 601.86,-114.59"/>
</g>
<!-- UserRepository&#45;&gt;UsersModule -->
<g id="edge14" class="edge">
<title>UserRepository&#45;&gt;UsersModule</title>
<path fill="none" stroke="black" d="M1056.88,-84.01C1056.88,-124.96 1056.88,-224.8 1056.88,-224.8 1056.88,-224.8 625.8,-224.8 625.8,-224.8"/>
<polygon fill="black" stroke="black" points="625.8,-221.3 615.8,-224.8 625.8,-228.3 625.8,-221.3"/>
</g>
<!-- MailService -->
<g id="node12" class="node">
<title>MailService</title>
<ellipse fill="#fdb462" stroke="black" cx="82" cy="-218.8" rx="58.46" ry="18"/>
<text text-anchor="middle" x="82" y="-214.6" font-family="Times,serif" font-size="14.00">MailService</text>
</g>
<!-- MailService&#45;&gt;MailModule -->
<g id="edge12" class="edge">
<title>MailService&#45;&gt;MailModule</title>
<path fill="none" stroke="black" d="M82,-200.79C82,-178.31 82,-142.8 82,-142.8 82,-142.8 313.71,-142.8 313.71,-142.8"/>
<polygon fill="black" stroke="black" points="313.71,-146.3 323.71,-142.8 313.71,-139.3 313.71,-146.3"/>
</g>
<!-- UsersService -->
<g id="node13" class="node">
<title>UsersService</title>
<ellipse fill="#fdb462" stroke="black" cx="749" cy="-142.8" rx="61.95" ry="18"/>
<text text-anchor="middle" x="749" y="-138.6" font-family="Times,serif" font-size="14.00">UsersService</text>
</g>
<!-- UsersService&#45;&gt;UsersModule -->
<g id="edge15" class="edge">
<title>UsersService&#45;&gt;UsersModule</title>
<path fill="none" stroke="black" d="M749,-160.83C749,-181.57 749,-212.8 749,-212.8 749,-212.8 626.1,-212.8 626.1,-212.8"/>
<polygon fill="black" stroke="black" points="626.1,-209.3 616.1,-212.8 626.1,-216.3 626.1,-209.3"/>
</g>
</g>
</svg>
